<?xml version="1.0" encoding="UTF-8"?>
<svg id="Layer_1" xmlns="http://www.w3.org/2000/svg" version="1.1" viewBox="0 0 612 85">
  <!-- Generator: Adobe Illustrator 30.2.1, SVG Export Plug-In . SVG Version: 2.1.1 Build 1)  -->
  <defs>
    <style>
      .st0 {
        fill: #fff;
      }
    </style>
  </defs>
  <path class="st0" d="M27.4,65V17.9h25.7v4.3h4.3v38.6h-4.3v4.3h-25.7ZM40.3,52.1h4.3v-21.4h-4.3v21.4Z"/>
  <path class="st0" d="M91.7,17.9v12.9h-8.6v34.3h-12.9V30.7h-8.6v-12.9h30Z"/>
  <path class="st0" d="M126,17.9v12.9h-17.1v4.3h17.1v12.9h-17.1v17.1h-12.9V17.9h30Z"/>
  <path class="st0" d="M186,17.9v47.1h-12.9v-17.1h-4.3v17.1h-12.9V17.9h12.9v17.1h4.3v-17.1h12.9Z"/>
  <path class="st0" d="M220.3,17.9v47.1h-12.9v-17.1h-4.3v17.1h-12.9V17.9h30ZM207.4,30.7h-4.3v4.3h4.3v-4.3Z"/>
  <path class="st0" d="M224.6,65V17.9h12.9v34.3h8.6v12.9h-21.4Z"/>
  <path class="st0" d="M280.3,17.9v12.9h-17.1v4.3h17.1v12.9h-17.1v17.1h-12.9V17.9h30Z"/>
  <path class="st0" d="M314.6,17.9v12.9h-8.6v34.3h-12.9V30.7h-8.6v-12.9h30Z"/>
  <path class="st0" d="M348.9,17.9v47.1h-30V17.9h30ZM336,30.7h-4.3v21.4h4.3v-21.4Z"/>
  <path class="st0" d="M353.1,65V17.9h30v47.1h-12.9V30.7h-4.3v34.3h-12.9Z"/>
  <path class="st0" d="M387.4,65V17.9h30v12.9h-17.1v4.3h17.1v12.9h-17.1v4.3h17.1v12.9h-30Z"/>
  <path class="st0" d="M477.4,17.9v38.6h-17.1v8.6h-12.9V17.9h30ZM464.6,30.7h-4.3v12.9h4.3v-12.9Z"/>
  <path class="st0" d="M511.7,17.9v30h-4.3v4.3h4.3v12.9h-12.9v-4.3h-4.3v4.3h-12.9V17.9h30ZM498.9,43.6v-12.9h-4.3v12.9h4.3Z"/>
  <path class="st0" d="M516,65V17.9h30v12.9h-17.1v4.3h17.1v12.9h-17.1v4.3h17.1v12.9h-30Z"/>
  <path class="st0" d="M580.3,17.9v38.6h-17.1v8.6h-12.9V17.9h30ZM567.4,30.7h-4.3v12.9h4.3v-12.9Z"/>
</svg>