<?xml version="1.0" encoding="UTF-8"?>
<svg id="Layer_1" xmlns="http://www.w3.org/2000/svg" version="1.1" viewBox="0 0 481.5 85">
  <!-- Generator: Adobe Illustrator 30.2.1, SVG Export Plug-In . SVG Version: 2.1.1 Build 1)  -->
  <defs>
    <style>
      .st0 {
        fill: #fff;
      }
    </style>
  </defs>
  <g>
    <path class="st0" d="M33.7,18.8v37.7h-16.8v8.4H4.4V18.8h29.3ZM21.2,31.3h-4.2v12.6h4.2v-12.6Z"/>
    <path class="st0" d="M67.2,18.8v29.3h-4.2v4.2h4.2v12.6h-12.6v-4.2h-4.2v4.2h-12.6V18.8h29.3ZM54.7,43.9v-12.6h-4.2v12.6h4.2Z"/>
    <path class="st0" d="M71.4,64.8V18.8h12.6v46.1h-12.6Z"/>
    <path class="st0" d="M88.2,64.8V18.8h29.3v46.1h-12.6V31.3h-4.2v33.5h-12.6Z"/>
    <path class="st0" d="M151,18.8v12.6h-8.4v33.5h-12.6V31.3h-8.4v-12.6h29.3Z"/>
    <path class="st0" d="M191.5,18.8v37.7h-16.8v8.4h-12.6V18.8h29.3ZM179,31.3h-4.2v12.6h4.2v-12.6Z"/>
    <path class="st0" d="M225.1,18.8v29.3h-4.2v4.2h4.2v12.6h-12.6v-4.2h-4.2v4.2h-12.6V18.8h29.3ZM212.5,43.9v-12.6h-4.2v12.6h4.2Z"/>
    <path class="st0" d="M229.2,64.8V18.8h29.3v12.6h-16.8v4.2h16.8v12.6h-16.8v4.2h16.8v12.6h-29.3Z"/>
    <path class="st0" d="M292.1,18.8v37.7h-16.8v8.4h-12.6V18.8h29.3ZM279.5,31.3h-4.2v12.6h4.2v-12.6Z"/>
  </g>
  <g>
    <path class="st0" d="M327.1,31.3c-6,0-10.9,1.8-12.2,1.8s-1.3-6.6-1.3-9.9,8.3-9.9,31.5-10.1c.8-2.1,1.5-4.8,1.2-7.1-.2-1.9-2.1-2.8,0-3,2.2-.3,7.2,2.5,7.7,6.6.5,4-2.7,8.3-4.3,12.1-1.7,3.8,3,5.5-.6,6-1.6.2-3.6-2.3-4.6-3.5-19.1,0-20.8,1.9-20.8,1.9,0,0,25.9,1.6,25.9,21.8s-16.9,33.8-33.8,33.8-18.2-13.6-18.2-21.3,9.6-20,22.7-20,15.2,10.8,15.2,13-1.9,3.5-1.9,2.6-2.1-7.3-15.2-7.3-18.1,8.3-18.1,11.7,4.3,12.2,16.5,12.2,30.1-15.7,30.1-25.3-13.8-16-19.8-16Z"/>
    <path class="st0" d="M386.5,34.9c0-1.7-3.7-5.2-10.2-5.2s-2.5,0-3.6,0c-7.2,13.1-21.1,34-16.8,34s11.4-9.7,16.7-17.5c.8-1.3,2.6-.7,1.3,1.2-1.2,1.9-14.4,19.3-19.8,19.3s-5.1-4-5.1-6.8c0-4,8.4-17.9,14.9-29.7-2.1.1-4.2.1-6.6.1-6.5,0-8.9-2.6-9.8-4.9-.7-2.1.2-2.5,1.2-1.6,1.7,1.4,4.6,2.8,8.7,2.8s6.6-.2,8.7-.5c2.9-5.5,5-10,5-12s5.7.4,5.7,6.3-.8,2.9-2.1,5.5h1.7c7.3,0,10.7,3.9,11.6,7.1.6,2.1-1.5,1.8-1.5,1.8Z"/>
    <path class="st0" d="M380.2,57.1s-7,9.8-10.6,9.8-5.2-1.8-4.8-6.3c.3-4.1,10.6-17.1,11-22.6.1-1.3,5.5.7,5.1,5.4-.4,4.7-14.1,21.1-10.3,21.1s19.4-19.8,19.8-26.6c.1-1.3,5.2,1.3,4.8,6-.4,4.7-13.7,20.6-10.1,20.6s11.4-10.3,16.7-18.2c.8-1.2,2.6-.6,1.3,1.2-1.2,1.9-14.1,19.3-19.4,19.3s-5.9-6.7-3.6-9.8Z"/>
    <path class="st0" d="M432.7,46.3c.9-1.3,2.6-.7,1.4,1.2-1.2,1.9-14.2,19.3-19.5,19.3s-5.4-1.9-5.4-7.6c0,0-5.9,7.6-8.4,7.6s-6.2-2-6.2-7.3c0-8.1,14.1-21.8,19.7-21.8s5.4,3.5,5.4,3.5c0,0,12.8-20.5,12.8-23.8s5-1.7,5,5.9-25.3,40.5-21.2,40.5,11.2-9.7,16.4-17.5ZM417.5,42.6c-2.9,0-16.2,14.2-16.2,20.9,0,0,0,.5.5.5,3.5,0,19.5-21.4,15.8-21.4Z"/>
    <path class="st0" d="M451.6,47.4c-1.3,1.9-14,19.4-19.4,19.4s-5.5-4.8-5.2-8c.4-4.2,6.3-11.4,9.1-18.4.4-1.1.1-2.6,1.5-2.6s4,2.3,3.6,6.9c-.4,4.6-13.4,19.1-7.3,19.1s11-9.7,16.2-17.6c.9-1.2,2.6-.6,1.4,1.3ZM441,29.3c.4-4.3,3-5.7,4.4-5.7s5.5,1.8,5.3,3.8-2,2.3-3.8,5.5c-1.8,3.1-1.7,3.2-2.6,3.2-1.3,0-3.7-2.5-3.3-6.7Z"/>
    <path class="st0" d="M463.2,59c-.2.2-.4.5-.6.8,0,0-.3.4-.8.9-2.8,2.9-6.3,5.5-9.5,6,0,0-.1,0-.2,0-.1,0-.2,0-.3,0h-.6c-2.3,0-6.3-1.2-6.3-7.4,0-10.5,11.3-21.8,17.7-21.8s5.6,2.2,7.1,4.6c.2.4-.2,1.2-2.9,1.2-9.7,0-19.7,20.9-14.6,20.9s9.9-6.9,9.9-6.9c0,0-.5-1.5-.5-3.6,0-4.8,5.8-6.9,5.8-1.9s-1.1,2.9-2.9,5.4c.2.2.8.4,1.1.4,2.8,0,5.5-4.4,10.3-11.6.8-1.3,2.6-.6,1.3,1.2-1.1,1.8-6.8,12.4-11.8,12.4s-1.6-.4-2.1-.8Z"/>
  </g>
</svg>